<svg width="101" height="73" viewBox="0 0 101 73" fill="none" xmlns="http://www.w3.org/2000/svg">
<path d="M23.6364 72.3182C19.1818 72.3182 15.2121 71.5454 11.7273 70C8.24244 68.4242 5.48486 66.106 3.45456 63.0454C1.45456 59.9545 0.454559 56.106 0.454559 51.5C0.454559 47.6212 1.16668 44.3636 2.59092 41.7272C4.01517 39.0909 5.95456 36.9697 8.4091 35.3636C10.8637 33.7575 13.6515 32.5454 16.7727 31.7272C19.9243 30.9091 23.2273 30.3333 26.6818 30C30.7424 29.5757 34.0152 29.1818 36.5 28.8182C38.9849 28.4242 40.7879 27.8485 41.9091 27.0909C43.0303 26.3333 43.5909 25.2121 43.5909 23.7272V23.4545C43.5909 20.5757 42.6818 18.3485 40.8637 16.7727C39.0758 15.1969 36.5303 14.4091 33.2273 14.4091C29.7424 14.4091 26.9697 15.1818 24.9091 16.7272C22.8485 18.2424 21.4849 20.1515 20.8182 22.4545L2.9091 21C3.8182 16.7576 5.60608 13.0909 8.27274 9.99998C10.9394 6.87876 14.3788 4.48482 18.5909 2.81815C22.8333 1.12119 27.7424 0.272705 33.3182 0.272705C37.197 0.272705 40.9091 0.727249 44.4546 1.63634C48.0303 2.54543 51.197 3.95452 53.9546 5.86361C56.7424 7.7727 58.9394 10.2272 60.5455 13.2272C62.1515 16.1969 62.9546 19.7576 62.9546 23.9091V71H44.5909V61.3182H44.0455C42.9243 63.5 41.4243 65.4242 39.5455 67.0909C37.6667 68.7273 35.4091 70.0151 32.7727 70.9545C30.1364 71.8636 27.0909 72.3182 23.6364 72.3182ZM29.1818 58.9545C32.0303 58.9545 34.5455 58.3939 36.7273 57.2727C38.9091 56.1212 40.6212 54.5757 41.8637 52.6363C43.1061 50.697 43.7273 48.5 43.7273 46.0454V38.6363C43.1212 39.0303 42.2879 39.3939 41.2273 39.7272C40.197 40.0303 39.0303 40.3182 37.7273 40.5909C36.4243 40.8333 35.1212 41.0606 33.8182 41.2727C32.5152 41.4545 31.3333 41.6212 30.2727 41.7727C28 42.106 26.0152 42.6363 24.3182 43.3636C22.6212 44.0909 21.303 45.0757 20.3637 46.3182C19.4243 47.5303 18.9546 49.0454 18.9546 50.8636C18.9546 53.5 19.9091 55.5151 21.8182 56.9091C23.7576 58.2727 26.2121 58.9545 29.1818 58.9545Z" fill="black"/>
<path d="M89.2955 72.1818C86.2955 72.1818 83.7197 71.1212 81.5682 69C79.447 66.8485 78.3864 64.2727 78.3864 61.2727C78.3864 58.303 79.447 55.7576 81.5682 53.6363C83.7197 51.5151 86.2955 50.4545 89.2955 50.4545C92.2046 50.4545 94.75 51.5151 96.9318 53.6363C99.1137 55.7576 100.205 58.303 100.205 61.2727C100.205 63.2727 99.6894 65.106 98.6591 66.7727C97.6591 68.4091 96.3409 69.7272 94.7046 70.7272C93.0682 71.6969 91.2652 72.1818 89.2955 72.1818Z" fill="black"/>
</svg>
